<svg width="210" height="67" viewBox="0 0 210 67" fill="none" xmlns="http://www.w3.org/2000/svg">
<path d="M14.3496 46V28.5771H8.82031V25.9238H14.3496V24.5137C14.3496 23.2272 14.5352 22.1016 14.9062 21.1367C15.2897 20.1595 15.8278 19.3431 16.5205 18.6875C17.2008 18.0319 18.0234 17.5371 18.9883 17.2031C19.9531 16.8691 21.0293 16.7021 22.2168 16.7021C22.7116 16.7021 23.2002 16.7331 23.6826 16.7949C24.165 16.8444 24.6413 16.9124 25.1113 16.999C25.4206 17.0609 25.7298 17.1289 26.0391 17.2031C26.3483 17.265 26.6637 17.3392 26.9854 17.4258L26.5771 20.2646C26.07 20.0915 25.4762 19.943 24.7959 19.8193C24.1279 19.6833 23.4105 19.6152 22.6436 19.6152C21.8643 19.6152 21.1715 19.7142 20.5654 19.9121C19.9717 20.0977 19.4769 20.3822 19.0811 20.7656C18.6605 21.1615 18.3389 21.6748 18.1162 22.3057C17.9059 22.9365 17.8008 23.6725 17.8008 24.5137V25.9238H25.5381V28.5771H17.8008V46H14.3496ZM32.5889 17.5H42.8496V43.0312H49.3994V46H32.5889V43.0312H39.417V20.4873H32.5889V17.5ZM55.4111 25.9238H65.6719V43.0312H72.2217V46H55.4111V43.0312H62.2393V28.9111H55.4111V25.9238ZM61.7939 20.6543C61.7939 20.3574 61.8372 20.0791 61.9238 19.8193C62.0228 19.5596 62.1712 19.3369 62.3691 19.1514C62.5299 18.9906 62.734 18.8669 62.9814 18.7803C63.2412 18.6813 63.5319 18.6318 63.8535 18.6318C64.1751 18.6318 64.4596 18.6813 64.707 18.7803C64.9544 18.8669 65.1585 18.9906 65.3193 19.1514C65.5173 19.3245 65.6657 19.541 65.7646 19.8008C65.8636 20.0605 65.9131 20.3451 65.9131 20.6543C65.9131 21.2109 65.7399 21.6748 65.3936 22.0459C65.0472 22.417 64.5339 22.6025 63.8535 22.6025C63.1608 22.6025 62.6413 22.417 62.2949 22.0459C61.9609 21.6748 61.7939 21.2109 61.7939 20.6543ZM77.6768 53.7188V25.9238H80.8125L80.9795 28.1133C81.2516 27.7669 81.5485 27.4577 81.8701 27.1855C82.1917 26.901 82.5381 26.6598 82.9092 26.4619C83.4287 26.165 84.0039 25.9424 84.6348 25.7939C85.278 25.6331 85.9645 25.5527 86.6943 25.5527C87.9808 25.5527 89.1188 25.8063 90.1084 26.3135C91.098 26.8206 91.9268 27.5257 92.5947 28.4287C93.2627 29.3317 93.7699 30.4141 94.1162 31.6758C94.4626 32.9251 94.6357 34.2982 94.6357 35.7949V36.1846C94.6357 37.6195 94.4626 38.9616 94.1162 40.2109C93.7699 41.4479 93.2627 42.5241 92.5947 43.4395C91.9268 44.3548 91.098 45.0723 90.1084 45.5918C89.1312 46.1113 88.0117 46.3711 86.75 46.3711C85.9831 46.3711 85.2656 46.2907 84.5977 46.1299C83.9421 45.9691 83.3483 45.7402 82.8164 45.4434C82.4948 45.2578 82.1917 45.0537 81.9072 44.8311C81.6227 44.596 81.3568 44.3424 81.1094 44.0703V53.7188H77.6768ZM91.2031 35.7949C91.2031 34.8177 91.0918 33.89 90.8691 33.0117C90.6589 32.1211 90.3311 31.3356 89.8857 30.6553C89.4281 29.9873 88.8529 29.4554 88.1602 29.0596C87.4674 28.6637 86.6387 28.4658 85.6738 28.4658C85.1419 28.4658 84.6471 28.5277 84.1895 28.6514C83.7441 28.7751 83.3421 28.9544 82.9834 29.1895C82.5876 29.4245 82.235 29.7152 81.9258 30.0615C81.6165 30.4079 81.3444 30.7913 81.1094 31.2119V40.8789C81.3197 41.25 81.5609 41.5964 81.833 41.918C82.1051 42.2396 82.4144 42.5117 82.7607 42.7344C83.1566 42.9941 83.5957 43.1982 84.0781 43.3467C84.5729 43.4951 85.1172 43.5693 85.7109 43.5693C86.6634 43.5693 87.486 43.3714 88.1787 42.9756C88.8714 42.5674 89.4404 42.0231 89.8857 41.3428C90.3311 40.6624 90.6589 39.877 90.8691 38.9863C91.0918 38.0957 91.2031 37.1618 91.2031 36.1846V35.7949Z" fill="#5BCECE"/>
<path d="M147.098 46.3711C145.688 46.3711 144.389 46.1299 143.201 45.6475C142.026 45.165 141.018 44.4909 140.177 43.625C139.336 42.7591 138.68 41.7324 138.21 40.5449C137.74 39.3574 137.505 38.0648 137.505 36.667V35.8877C137.505 34.2673 137.765 32.82 138.284 31.5459C138.804 30.2594 139.496 29.1709 140.362 28.2803C141.216 27.402 142.187 26.7279 143.275 26.2578C144.376 25.7878 145.502 25.5527 146.652 25.5527C148.1 25.5527 149.361 25.8063 150.438 26.3135C151.526 26.8083 152.429 27.4948 153.146 28.373C153.864 29.2637 154.396 30.3089 154.742 31.5088C155.101 32.7087 155.28 34.0075 155.28 35.4053V36.9453H140.938V37.0752C141.024 38.0524 141.216 38.9121 141.513 39.6543C141.822 40.3965 142.243 41.0521 142.774 41.6211C143.319 42.2272 143.974 42.7035 144.741 43.0498C145.508 43.3962 146.355 43.5693 147.283 43.5693C148.508 43.5693 149.596 43.3219 150.549 42.8271C151.501 42.3324 152.293 41.6768 152.924 40.8604L155.021 42.4932C154.353 43.5075 153.351 44.4105 152.015 45.2021C150.691 45.9814 149.052 46.3711 147.098 46.3711ZM146.652 28.373C145.96 28.373 145.304 28.5029 144.686 28.7627C144.067 29.0101 143.51 29.375 143.016 29.8574C142.521 30.3522 142.1 30.9583 141.754 31.6758C141.42 32.3809 141.185 33.1973 141.049 34.125H151.848V33.958C151.848 33.3395 151.73 32.6777 151.495 31.9727C151.26 31.2552 150.932 30.6367 150.512 30.1172C150.091 29.5977 149.559 29.1771 148.916 28.8555C148.285 28.5339 147.531 28.373 146.652 28.373ZM162.628 25.9238L162.721 27.8164C163.129 27.1113 163.661 26.5609 164.316 26.165C164.984 25.7692 165.788 25.5651 166.729 25.5527C167.26 25.5527 167.737 25.6146 168.157 25.7383C168.59 25.8496 168.967 26.0166 169.289 26.2393C169.524 26.4124 169.734 26.6227 169.92 26.8701C170.118 27.1175 170.285 27.3958 170.421 27.7051C170.594 27.4206 170.798 27.1546 171.033 26.9072C171.268 26.6598 171.522 26.4434 171.794 26.2578C172.14 26.0475 172.524 25.8805 172.944 25.7568C173.377 25.6331 173.847 25.5651 174.354 25.5527C175.047 25.5527 175.672 25.6579 176.229 25.8682C176.785 26.0661 177.255 26.363 177.639 26.7588C178.059 27.2041 178.381 27.7855 178.604 28.5029C178.826 29.208 178.938 30.043 178.938 31.0078V46H175.672V30.9707C175.672 30.5501 175.622 30.179 175.523 29.8574C175.424 29.5358 175.282 29.2699 175.097 29.0596C174.899 28.8617 174.651 28.7132 174.354 28.6143C174.07 28.5153 173.736 28.4658 173.353 28.4658C172.944 28.4658 172.592 28.5215 172.295 28.6328C171.998 28.7441 171.751 28.8926 171.553 29.0781C171.355 29.276 171.2 29.5049 171.089 29.7646C170.978 30.012 170.903 30.2904 170.866 30.5996C170.866 30.6615 170.866 30.7233 170.866 30.7852C170.866 30.8346 170.866 30.8965 170.866 30.9707V46H167.601V30.9521C167.601 30.5316 167.551 30.1605 167.452 29.8389C167.366 29.5173 167.223 29.2513 167.025 29.041C166.84 28.8431 166.605 28.7008 166.32 28.6143C166.048 28.5153 165.727 28.4658 165.355 28.4658C164.947 28.4658 164.589 28.5153 164.279 28.6143C163.982 28.7008 163.729 28.8307 163.519 29.0039C163.358 29.14 163.215 29.2946 163.092 29.4678C162.98 29.641 162.888 29.8265 162.813 30.0244V46H159.548V25.9238H162.628Z" fill="#80E2E2"/>
<path d="M193.803 37.2607H190.352V18.9844H193.803V37.2607ZM190.018 44.2002C190.018 43.6064 190.191 43.1117 190.537 42.7158C190.896 42.32 191.428 42.1221 192.133 42.1221C192.838 42.1221 193.37 42.32 193.729 42.7158C194.1 43.1117 194.285 43.6064 194.285 44.2002C194.285 44.7692 194.1 45.2454 193.729 45.6289C193.37 46.0124 192.838 46.2041 192.133 46.2041C191.428 46.2041 190.896 46.0124 190.537 45.6289C190.191 45.2454 190.018 44.7692 190.018 44.2002Z" fill="#5BCECE"/>
<path d="M130 29C130 29 122 29 113 29C104 29 104.5 42.5 104.5 42.5" stroke="#80E2E2" stroke-width="4"/>
</svg>
